<?xml version="1.0" encoding="UTF-8"?>
<svg version="1.1" viewBox="0 0 2048 2048" width="128" height="128"
    xmlns="http://www.w3.org/2000/svg">
    <path transform="translate(1008)"
        d="m0 0h33l3 8 10 14 9 13 8 12 9 15 10 17 8 10 8 9 6 3 10 1 9-7 11-10 7-8 5-6h2l2-4 10-10 9-11 5-4 9-11 15-11 6-3h12l9 5 7 7 8 14 12 31 14 40 9 16 7 7 6 3 4-1 6-3 23-15 16-12 17-12 19-13 9-6 14-5h7l10 5 6 7 4 9 5 22 10 55 3 18 5 15 3 4h18l29-12 19-9 28-13 20-9h9l9 4 9 6 6 12 2 10v21l-2 41v38l3 6 5 5 6 4h12l22-5 45-12 20-4 14-1 9 3 9 6 5 6 2 9-1 17-5 23-6 24-8 34-1 6v10l5 8 5 5 3 1h43l38-1h23l12 3 8 5 4 5 5 10v7l-5 16-14 31-16 36-5 11-2 7v10l3 8 10 5 16 4 72 13 13 4 11 6 7 8 2 10-3 12-8 15-11 15-24 34-10 15-5 9-3 6v9l6 7 10 6 19 8 37 14 18 7 13 7 11 9 5 7 3 8-1 6-9 14-14 15-13 13-8 7-15 14-5 4-7 8-9 9-6 9 1 6 2 2 2 5 4 5 13 10 21 13 19 12 14 9 12 9 6 5 10 5v30l-9 5-12 9-27 18-19 12-14 9-11 9-4 2v2h-2l-2 4-4 7 2 8 6 8 29 29 8 7 7 7 8 7 7 7 9 11 4 5 6 12v9l-6 9-7 6-14 7-53 20-21 9-10 6-8 7-3 5 1 9 10 16 9 13 9 12 14 19 8 12 9 15 4 9 1 8-4 13-5 5-14 6-29 6-55 10-21 6-6 4-1 4v8l4 14 9 21 12 26 13 28 5 14v10l-6 11-7 7-8 4-9 2-76-2h-12l-18 1-5 5-4 8-1 4v10l3 15 17 62 2 13v11l-4 8-8 9-9 6-2 1h-8l-24-5-57-14-16-3-13-1-5 5-5 8-2 12v28l3 53v10l-2 8-6 10-9 9-9 7-5-1-12-6-46-20-36-16-17-5-6 2-4 5-6 18-9 49-5 29-4 13-7 12-7 6-8 4-14-5-20-11-13-9-18-13-14-10-15-10-10-6-9-3-6 3-7 8-5 8-7 17-15 41-8 18-6 12-9 10-8 6-7 1-12-5-11-9-30-30-7-8-7-7-7-8-14-14-10-6h-8l-7 4-8 9-8 12-9 15-9 14-13 22-8 11-5 7-5 10h-33l-2-5-10-16-11-17-13-21-11-17-10-15-7-8-9-6-8 1-12 9-24 24-7 8-15 16-12 13-12 10-10 6-3 1h-7l-10-7-7-8-8-15-14-35-8-21-9-20-7-13-2-4-8-1-13 5-11 7-14 10-50 35-13 6-9 2-9-1-8-5-5-6-5-14-10-51-7-37-6-17-1-4h-14l-19 7-30 14-30 13-25 10-7 1-9-6-10-8-4-8-2-9v-14l1-14 2-44v-27l-4-10-6-7-2-1v-2l-13 2-64 16-22 5-16 2-7-1-8-7-8-10-3-6v-10l7-33 13-48 2-13v-7l-4-9-7-9h-46l-50 2h-15l-8-2-7-6-11-22 5-12 6-12 12-27 11-25 7-15 3-10v-11l-3-8-3-3-15-5-41-7-45-7-10-3-10-8-5-7-2-6v-7l6-14 10-16 11-16 13-18 8-11 9-12 7-12 2-5-1-7-9-9-17-9-35-14-40-15-11-8-8-9-2-4 1-9 8-16 15-16 15-14 17-16 7-7h2v-2l8-7 9-10 4-8-1-6-4-8-9-8-10-7-27-16-28-19-18-13-6-4v-30l11-7 13-10 20-13 23-14 24-16 3-3h2v-2h2l5-10-2-8-9-13-14-14-24-22-22-22-9-11-6-11 1-8 4-8 4-5 8-7 8-5 20-8 21-7 18-7 16-7 16-9 3-3 1-3h2l-1-8-7-14-12-19-9-12-14-20-11-17-9-16-3-7 1-5 4-9 7-8 12-6 16-3 28-5 26-5 19-3 16-6 5-4 1-2v-10l-7-21-14-32-9-21-13-29v-8l8-13 5-5 8-5 8-2h12l11 1 71 2 11-1 6-4 5-7 1-3v-9l-5-25-9-37-7-29v-13l6-12 6-7 9-6h9l34 7 48 11 17 4h9l5-3h2v-2h2l6-12v-15l-1-12-1-40-1-33 6-15 8-9 9-6 6-1 12 4 26 12 22 9 15 7 22 10 11 3h9l5-5 7-19 8-45 7-38 5-12 6-10 7-5 10-2 10 3 18 10 10 7 16 11 13 9 14 10 19 13 5 3 9-1 5-5 7-9 8-16 9-24 12-33 6-15 7-9 13-10h8l11 4 11 8 10 9 11 12 7 7 7 8 15 16 12 12 11 8 6 3 5-2 13-12 12-17 10-17 12-20 8-11 7-11 7-8zm25 182m-15 0-14 1-13 5-9 6-8 8-8 13-6 14-1 5v11l3 13 7 14 9 11 9 8 10 6 14 4h22l12-5 15-10 8-7 6-10 4-8 3-12v-13l-4-15-8-16-8-10-10-7-7-3-7-1-6-2zm-136 98-26 6-31 8-39 12-31 11-26 11-23 10-38 19-24 14-15 9-40 27-15 11-16 13-10 8-11 9-10 9-12 11-3 2v2l-4 2v2l-4 2-15 15-8 7-5 4-8 10 2 2h66l85 1 626 1 27 1 27 3 23 5 32 10 19 8 17 8 19 11 14 9 16 12 16 13 10 9 3 3h2l2 4 9 9 14 19 8 13 12 21 10 23 7 25 4 24 1 11v13l-2 18-6 29-8 20-8 17-14 21-10 13-11 13-12 13-11 11-8 7-5 4v2l-4 2-11 8-17 12-18 11-5 3v2l-3 1 6 7 11 8 10 9 14 12 18 18 1 2h2l2 4 13 19 10 17 8 17 8 22 9 31 9 39 5 12 13 13 15 8 18 6 13 2h29l16-3 15-5 13-7 13-11 8-10 6-10 7-21 3-21 1-10 2-48 2-7h80l3-5 1-17 1-38v-17l-1-31-1-17-1-3-11-7-36-16-30-13-32-14-20-9-18-10-8-7-10-14-4-9-1-3v-15l4-16 9-22 17-38 11-26 13-29 16-36 4-7 1-6-8-16-10-17-15-22-12-17-11-15-11-14-24-28-14-15-2-3h-2l-2-4-16-16-8-7-14-13-8-7-15-13-14-11-16-13-19-13-33-22-18-11-23-13-29-15-33-15-20-8-24-9-40-13-38-10-24-6h-9l-8 7-11 11-2 1v2h-2v2l-4 2v2h-2l-6 7-2 1v2h-2v2l-4 2v2h-2l-5 5-1 3-4 2-17 17-8 7-15 15-14 11-14 8-10 3-9 2-9-1-13-4-11-7-10-9-8-7-19-19-1-2h-2l-2-4-13-13-7-8-9-10-10-11-9-11-7-7zm-595 451-12 3-13 7-10 8-8 9-6 12-4 14v12l3 12 5 12 8 11 8 9 9 5 11 5 12 3h11l20-7 11-7 13-13 6-10 4-12 1-6v-9l-4-17-7-14-11-12-7-6-14-7-7-2zm1447 4-15 5-11 7-4 3v2l-3 1-7 10-6 14-3 15v8l3 14 8 16 7 9 5 4 16 8 15 4h18l14-5 13-8 8-8 9-16 4-12 1-10-2-16-5-13-7-11-5-6-10-7-11-5-12-3zm-1321 8-3 2h2l1 5 14 29 13 32 3 15v10l-4 13-7 10-9 10-13 8-29 14-19 8-56 24-16 6-6 3-4 6-2 15-2 31v67l3 41 5 44 8 41 9 36 3 8 2 1h210l1-148v-325l-1-6zm441 5v141l144 1h59l42-1 24-2 15-3 19-7 14-8 11-9 7-8 8-15 1-4v-17l-4-14-7-13-9-11-14-11-17-8-21-7-17-3-237-1zm0 345-1 128 1 8 185 1 4 1 1 9v217l-6 3-324 1h-290l-2 1 2 5 11 13 8 10 13 14 9 11 11 13 2 3h2l2 4 3 2 9-1 24-6 47-9 37-8 16-2h17l10 3 12 7 8 8 6 9 6 16 7 29 10 49 9 46 4 12 7 8 14 7 47 18 37 12 37 10 29 6 37 6 46 6 29 2h71l36-3 35-5 48-8 24-6 40-11 36-12 19-7 25-10 6-5 4-10 5-23 5-21 10-49 8-33 6-17 6-11 6-7 2-1v-2l4-2 15-8 4-1h12l30 5 33 7 39 7 24 6 9 3h6l6-5 9-11 11-12 11-14 9-10 7-8 10-14 2-6h-306l-21-1-12-4-13-9-10-9-8-7-10-10-9-11-11-15-9-16-9-20-8-24-6-24-11-49-10-48-7-28-7-19-8-17-8-12-11-12-8-8-13-9-15-8-16-5-13-2-15-1zm-287 495-12 2-15 6-11 7-8 10-9 16-2 7-1 12 2 14 4 10 6 11 8 10 7 6 13 7 15 3h12l15-4 14-8 12-11 6-8 5-11 2-8v-18l-5-16-6-12-9-10-11-8-12-5-14-2zm900 3-15 3-12 5-6 4-11 11-8 16-4 12v20l5 14 9 15 9 9 11 7 12 4 8 1h15l13-4 14-8 11-10 6-10 4-9 2-8v-22l-5-15-8-14-10-10-10-6-12-4-8-1z" />
    <path transform="translate(423,1463)" d="m0 0" />
</svg>